PathFileType	4	(X/Y/Z)	C:\Users\u0145647\OneDrive - KU Leuven\KU Leuven\c3d2osim\CP16\T0\Data\Processed\ViconC3D\CP16_T0_08_gapFilled.trc
DataRate	CameraRate	NumFrames	NumMarkers	Units	OrigDataRate	OrigDataStartFrame	OrigNumFrames
100.000000	100.000000	4	47	mm	100.000000	638	729
Frame#	Time	C7			T10			CLAV			STRN			LSHO			RSHO			RBAK			LASI			RASI			LPSI			RPSI			LLAT			RLAT			LF1			LF2			LF3			LTHI			LKNE			LMEK			RF1			RF2			RF3			RTHI			RKNE			RMEK			LT1			LT2			LT3			LTIB			LMM			LANK			RT1			RT2			RT3			RTIB			RANK			RMM			LHEE			LSTL			LLCA			LTOE			LCM5			RHEE			RSTL			RLCA			RTOE			RCM5
		X1	Y1	Z1	X2	Y2	Z2	X3	Y3	Z3	X4	Y4	Z4	X5	Y5	Z5	X6	Y6	Z6	X7	Y7	Z7	X8	Y8	Z8	X9	Y9	Z9	X10	Y10	Z10	X11	Y11	Z11	X12	Y12	Z12	X13	Y13	Z13	X14	Y14	Z14	X15	Y15	Z15	X16	Y16	Z16	X17	Y17	Z17	X18	Y18	Z18	X19	Y19	Z19	X20	Y20	Z20	X21	Y21	Z21	X22	Y22	Z22	X23	Y23	Z23	X24	Y24	Z24	X25	Y25	Z25	X26	Y26	Z26	X27	Y27	Z27	X28	Y28	Z28	X29	Y29	Z29	X30	Y30	Z30	X31	Y31	Z31	X32	Y32	Z32	X33	Y33	Z33	X34	Y34	Z34	X35	Y35	Z35	X36	Y36	Z36	X37	Y37	Z37	X38	Y38	Z38	X39	Y39	Z39	X40	Y40	Z40	X41	Y41	Z41	X42	Y42	Z42	X43	Y43	Z43	X44	Y44	Z44	X45	Y45	Z45	X46	Y46	Z46	X47	Y47	Z47

638	6.37	3438.3	1438.8	-414.12	NaN	NaN	NaN	NaN	NaN	NaN	3552.2	1164	-357.88	3542.4	1329.7	-564.83	3418.7	1369.9	-215.33	NaN	NaN	NaN	3558.4	910.49	-495.28	3507.1	920.53	-252.03	NaN	NaN	NaN	NaN	NaN	NaN	NaN	NaN	NaN	3435.9	984.24	-248.93	3619.5	680.02	-514.12	3614.3	726.92	-516.81	3579.2	701.13	-529.7	3685.7	603.54	-531.64	3707.8	480.66	-467.8	3650.7	459.87	-367.58	3467	683.27	-199.34	NaN	NaN	NaN	NaN	NaN	NaN	3463.4	597.58	-148.38	3466.4	439.56	-194.09	3483.1	434.64	-313.65	3699.5	404.28	-499.52	3723.9	386.08	-472.45	3707.4	356.9	-503.12	3741.7	287.87	-551.9	3633.6	78.768	-507.62	3664.9	98.694	-592.22	3388.5	320.52	-191.43	3398.9	357	-186.07	3425	332.73	-195.63	3351.9	231.01	-159.8	3226.5	115.34	-216.15	3241.1	115.27	-309.49	NaN	NaN	NaN	3652.7	46.124	-514.03	3678.7	68.936	-601.19	3773.1	66.386	-551.77	3768.9	54.896	-600.57	3165.4	125.94	-259.18	3238.2	79.89	-307.17	3234.3	85.12	-209.53	3333.2	61.64	-227.65	3297.6	53.958	-185.75
639	6.38	3448.2	1437.6	-418.69	NaN	NaN	NaN	NaN	NaN	NaN	3560.2	1162.2	-361.14	3552.7	1328.2	-568.68	3427	1368.8	-220.34	NaN	NaN	NaN	3566.4	909.56	-496.52	3512.6	919.25	-253.21	NaN	NaN	NaN	NaN	NaN	NaN	NaN	NaN	NaN	3441.4	983.42	-251.51	3626.8	678.49	-513.82	3621.7	725.21	-516.49	3587.1	699.82	-529.8	3690.9	600.71	-531.35	3714.1	479.74	-465.6	3658.1	460.13	-364.83	3473	681.96	-201.16	NaN	NaN	NaN	NaN	NaN	NaN	3470.1	596.68	-149.67	3474.1	438.84	-194.31	3494	433.16	-313.47	3705.4	403.68	-496.97	3729.6	385.57	-469.8	3713.5	356.66	-500.3	3748	285.6	-546.9	3633.7	78.537	-507.15	3663.4	98.768	-591.68	3395.1	320.54	-192.86	3405.5	357.22	-187.25	3431.7	333.11	-196.23	3356.3	232.76	-161.61	3228.5	119.21	-219.73	3245	118.66	-312.84	NaN	NaN	NaN	3652.7	45.552	-513.57	3679.1	69.884	-601.14	3772.8	66.357	-552.41	3768.2	54.636	-601.07	3168.7	130.2	-263.64	3241.2	83.14	-310.41	3235.3	88.535	-212.91	3334.2	62.255	-229.11	3298	56.326	-187.55
640	6.39	3458	1436.7	-423.31	NaN	NaN	NaN	NaN	NaN	NaN	3568.2	1160.7	-364.26	3563.5	1327	-572.31	3435.2	1368.3	-225.41	NaN	NaN	NaN	NaN	NaN	NaN	3518	918.36	-254.34	NaN	NaN	NaN	NaN	NaN	NaN	NaN	NaN	NaN	3446.8	983.31	-254.13	3634.4	677.38	-513.61	3629.6	723.92	-516.36	3594.6	697.87	-529.48	3695.9	597.62	-531.25	3719.2	478.3	-464.29	3664	459.79	-362.79	3478.5	681	-202.82	NaN	NaN	NaN	NaN	NaN	NaN	3474.8	595.89	-151.07	3481.3	438.78	-194.31	3504.4	432.34	-312.96	3709.7	402.37	-495.55	3734	383.96	-468.45	3717.2	355.25	-499.02	3749.2	283.52	-547.46	3633.5	77.908	-507.22	3663	98.853	-591.72	3401	323.01	-193.85	3411.8	358.8	-188.57	3438.4	333.5	-196.84	3360.7	234.51	-163.43	3231.4	123.73	-223.97	3249.9	122.32	-316.66	NaN	NaN	NaN	3652.7	45.212	-513.59	3679	69.962	-601.19	3772.6	66.21	-552.72	3768.1	54.428	-601.27	3172.4	136.04	-269.56	3245	86.557	-314.06	3236.8	92.572	-216.93	3335.3	63.012	-230.75	3297.6	58.276	-190.04
641	6.4	3468	1435.8	-428.24	NaN	NaN	NaN	NaN	NaN	NaN	3576.1	1159.4	-367.17	3574.7	1325.7	-575.73	3443.2	1368.1	-230.27	NaN	NaN	NaN	NaN	NaN	NaN	3523	917.63	-255.41	NaN	NaN	NaN	NaN	NaN	NaN	NaN	NaN	NaN	3452	983.41	-256.51	3641.1	675.76	-513.16	3636.9	722.52	-516.13	3602.1	696.44	-529.54	3700.7	594.6	-530.81	3723.4	476.29	-463.47	3668.3	458.57	-361.41	3483.7	680.19	-204.33	NaN	NaN	NaN	NaN	NaN	NaN	3478.3	595.24	-152.55	3488.3	438.95	-194.29	3514.7	431.87	-312.32	3713.2	400.65	-495.17	3737.5	381.8	-468.4	3720.1	353.57	-499.4	3747.8	282.95	-551.11	3633.6	77.82	-507.61	3664	98.694	-591.9	3405.5	324.47	-194.67	3417.5	360.66	-189.99	3443.9	334.18	-196.46	3363.1	237.83	-165.21	3234.2	127.99	-229.08	3255.3	125.77	-321.08	NaN	NaN	NaN	3652.8	45.181	-513.86	3678.2	69.151	-601.22	3772.8	66.265	-552.51	3768.5	54.572	-601.2	3177.2	142.09	-276.22	3249.7	90.444	-318.5	3238.6	96.816	-221.73	3337	63.955	-232.81	3298.3	61.405	-192.82
